<svg xmlns="http://www.w3.org/2000/svg" 
    xmlns:xlink="http://www.w3.org/1999/xlink" width="100%" height="100%" viewBox="0 0 327.285 82.08">
    <defs>
        <style>.a{fill:#333;}.b{opacity:0.75;fill:url(#a);}.c{fill:#00c9ff;opacity:0.54;}.d{fill:#961fff;opacity:0.65;}</style>
        <linearGradient id="a" x1="0.94" y1="0.5" x2="-0.06" y2="0.5" gradientUnits="objectBoundingBox">
            <stop offset="0" stop-color="#21d4fd"/>
            <stop offset="1" stop-color="#b721ff"/>
        </linearGradient>
    </defs>
    <g transform="translate(-6284 -1736)">
        <g transform="translate(6284 1736)">
            <g transform="translate(127.929 27.136)">
                <path class="a" d="M596.14,152.96h11.095v24.3h14.854v8.6H596.14Z" transform="translate(-596.14 -147.271)"/>
                <path class="a" d="M751.982,200.074H734.119a4.309,4.309,0,0,0,1.88,2.232,6.392,6.392,0,0,0,3.29.775,8.327,8.327,0,0,0,2.843-.423,9.976,9.976,0,0,0,2.515-1.457l5.547,5.594q-3.76,4.136-11.234,4.137a18.458,18.458,0,0,1-8.18-1.717,13,13,0,0,1-5.453-4.77A13.3,13.3,0,0,1,725.3,190.7a13,13,0,0,1,5.217-4.723,17.183,17.183,0,0,1,14.573-.142,12.235,12.235,0,0,1,5.125,4.56,13.161,13.161,0,0,1,1.9,7.191C752.121,197.739,752.076,198.57,751.982,200.074Zm-16.642-7.661a4.241,4.241,0,0,0-1.41,2.539H742.2a4.32,4.32,0,0,0-1.41-2.515,4.067,4.067,0,0,0-2.727-.916A4.141,4.141,0,0,0,735.34,192.413Z" transform="translate(-696.091 -171.87)"/>
                <path class="a" d="M898.3,187.155q2.891,2.868,2.891,8.65v14.665H890.568V197.638q0-4.416-3.15-4.419a3.685,3.685,0,0,0-2.891,1.245,5.816,5.816,0,0,0-1.105,3.925v12.082H872.8V184.758h10.107V187.3a9.792,9.792,0,0,1,3.479-2.255,11.945,11.945,0,0,1,4.277-.751A10.367,10.367,0,0,1,898.3,187.155Z" transform="translate(-813.43 -171.878)"/>
                <path class="a" d="M1046.737,204.427v7.755H1022.2v-6.112l10.625-11.846h-10.247V186.47h23.644v6.112L1035.6,204.427Z" transform="translate(-930.77 -173.59)"/>
                <path class="a" d="M1169.91,165.753h9.637v13.914a22.4,22.4,0,0,1-6.768,3.1,27.94,27.94,0,0,1-7.569,1.082,20.1,20.1,0,0,1-9.448-2.187,16.323,16.323,0,0,1-6.558-6.112,17.9,17.9,0,0,1,0-17.816,16.229,16.229,0,0,1,6.629-6.112,20.734,20.734,0,0,1,9.614-2.187,22.046,22.046,0,0,1,8.672,1.622,16.3,16.3,0,0,1,6.369,4.723l-7.1,6.251a9.433,9.433,0,0,0-7.38-3.62,7.775,7.775,0,0,0-5.828,2.21,8.232,8.232,0,0,0-2.163,6.017,8.315,8.315,0,0,0,2.14,5.97,7.494,7.494,0,0,0,5.71,2.255,10.466,10.466,0,0,0,4.043-.8Z" transform="translate(-1028.655 -144.506)"/>
                <path class="a" d="M1316.612,135.733a5.148,5.148,0,0,1,0-7.755,6.827,6.827,0,0,1,4.631-1.528,7.015,7.015,0,0,1,4.655,1.457,4.684,4.684,0,0,1,1.74,3.76,5.178,5.178,0,0,1-1.74,4.019,6.672,6.672,0,0,1-4.655,1.575A6.809,6.809,0,0,1,1316.612,135.733Zm-.682,3.6h10.625v25.713h-10.625Z" transform="translate(-1160.619 -126.45)"/>
                <path class="a" d="M1415,184.758v20.588q0,7.333-4.067,11.024t-11.588,3.691a30.059,30.059,0,0,1-7.193-.822,18.169,18.169,0,0,1-5.689-2.373l3.573-7.238a12.333,12.333,0,0,0,3.807,1.833,15.083,15.083,0,0,0,4.419.706q3.2,0,4.655-1.363a5.213,5.213,0,0,0,1.457-4v-.47q-2.4,2.726-7.1,2.725a12.762,12.762,0,0,1-6.135-1.528,11.557,11.557,0,0,1-4.536-4.371,13.319,13.319,0,0,1,0-13,11.616,11.616,0,0,1,4.536-4.348,12.774,12.774,0,0,1,6.135-1.528q5.263,0,7.616,3.384V184.76H1415Zm-11.775,14.878a3.879,3.879,0,0,0,1.247-2.985,3.8,3.8,0,0,0-1.247-2.961,4.478,4.478,0,0,0-3.126-1.129,4.542,4.542,0,0,0-3.174,1.129,3.8,3.8,0,0,0-1.245,2.961,3.848,3.848,0,0,0,1.268,2.985,4.508,4.508,0,0,0,3.15,1.152A4.427,4.427,0,0,0,1403.226,199.636Z" transform="translate(-1215.644 -171.878)"/>
            </g>
            <path class="b" d="M160.59,65.795,132.1,49.346v-32.9L160.59,0l28.49,16.449v32.9Z" transform="translate(-103.752)"/>
            <path class="c" d="M28.423,142.258,0,125.848V93.03L28.423,76.62,56.844,93.03v32.818Z" transform="translate(0 -60.178)"/>
            <path class="d" d="M293.251,142.258l-28.421-16.41V93.03l28.421-16.41,28.423,16.41v32.818Z" transform="translate(-207.999 -60.178)"/>
        </g>
    </g>
</svg>