<svg xmlns="http://www.w3.org/2000/svg" width="56.408" height="56.416" viewBox="0 0 56.408 56.416"><defs><style>.a{fill:#3e5c9a;}.b{fill:#fff;}</style></defs><g transform="translate(-210.08)"><path class="a" d="M238.284,56.416h0a28.2,28.2,0,0,1-28.2-28.2h0A28.206,28.206,0,0,1,238.284,0h0a28.2,28.2,0,0,1,28.2,28.2h0A28.206,28.206,0,0,1,238.284,56.416Z" transform="translate(0)"/><path class="b" d="M239.5,48.283h6.866V31.09h4.79l.511-5.757h-5.3v-3.28c0-1.361.275-1.9,1.589-1.9h3.712V14.18h-4.758c-5.112,0-7.417,2.249-7.417,6.559v4.593H235.92v5.828h3.571V48.283Z" transform="translate(-5.517 -3.027)"/></g></svg>