<svg xmlns="http://www.w3.org/2000/svg" xmlns:xlink="http://www.w3.org/1999/xlink" width="55.388" height="55.396" viewBox="0 0 55.388 55.396"><defs><style>.a{fill:url(#a);}.b{fill:#fff;}</style><radialGradient id="a" cx="-0.025" cy="1.003" r="1.849" gradientTransform="translate(0)" gradientUnits="objectBoundingBox"><stop offset="0" stop-color="#f5ec53"/><stop offset="0.241" stop-color="#e48244"/><stop offset="0.397" stop-color="#d15767"/><stop offset="0.489" stop-color="#c84278"/><stop offset="1" stop-color="#192cfa"/></radialGradient></defs><g transform="translate(-573.54 -1276.432)"><g transform="translate(573.54 1276.432)"><path class="a" d="M342.8,55.4h0A27.694,27.694,0,0,1,315.11,27.7h0A27.7,27.7,0,0,1,342.8,0h0A27.694,27.694,0,0,1,370.5,27.694h0A27.691,27.691,0,0,1,342.8,55.4Z" transform="translate(-315.11)"/><g transform="translate(12.511 12.511)"><path class="b" d="M346.493,18.934c4.055,0,4.533.015,6.14.085a8.389,8.389,0,0,1,2.819.525,5.025,5.025,0,0,1,2.881,2.881,8.39,8.39,0,0,1,.525,2.819c.07,1.6.085,2.085.085,6.14s-.015,4.533-.085,6.14a8.39,8.39,0,0,1-.525,2.819,5.025,5.025,0,0,1-2.881,2.881,8.39,8.39,0,0,1-2.819.525c-1.6.069-2.077.085-6.14.085s-4.533-.015-6.14-.085a8.39,8.39,0,0,1-2.819-.525,5.025,5.025,0,0,1-2.881-2.881,8.391,8.391,0,0,1-.525-2.819c-.069-1.6-.085-2.085-.085-6.14s.015-4.533.085-6.14a8.391,8.391,0,0,1,.525-2.819,5.025,5.025,0,0,1,2.881-2.881,8.39,8.39,0,0,1,2.819-.525c1.606-.07,2.085-.085,6.14-.085m0-2.734c-4.124,0-4.641.015-6.263.093a11.363,11.363,0,0,0-3.684.7,7.346,7.346,0,0,0-2.688,1.753,7.447,7.447,0,0,0-1.753,2.688,10.964,10.964,0,0,0-.7,3.684c-.077,1.622-.093,2.139-.093,6.263s.015,4.641.093,6.263a11.361,11.361,0,0,0,.7,3.684,7.346,7.346,0,0,0,1.753,2.688,7.446,7.446,0,0,0,2.688,1.753,10.964,10.964,0,0,0,3.684.7c1.622.077,2.139.093,6.263.093s4.641-.015,6.263-.093a11.363,11.363,0,0,0,3.684-.7,7.346,7.346,0,0,0,2.688-1.753,7.446,7.446,0,0,0,1.753-2.688,10.965,10.965,0,0,0,.7-3.684c.077-1.622.093-2.139.093-6.263s-.015-4.641-.093-6.263a11.362,11.362,0,0,0-.7-3.684,7.346,7.346,0,0,0-1.753-2.688A7.446,7.446,0,0,0,356.44,17a10.965,10.965,0,0,0-3.684-.7c-1.622-.077-2.139-.093-6.263-.093" transform="translate(-331.31 -16.2)"/><path class="b" d="M348.67,25.77a7.8,7.8,0,1,0,7.8,7.8,7.8,7.8,0,0,0-7.8-7.8m0,12.859a5.058,5.058,0,1,1,5.058-5.058,5.056,5.056,0,0,1-5.058,5.058" transform="translate(-333.487 -18.379)"/><path class="b" d="M362.755,24.833a1.823,1.823,0,1,1-1.823-1.823,1.826,1.826,0,0,1,1.823,1.823" transform="translate(-337.641 -17.751)"/></g></g></g></svg>