<svg xmlns="http://www.w3.org/2000/svg" width="56.906" height="56.906" viewBox="0 0 56.906 56.906"><defs><style>.a{fill:#faf807;}.b{fill:#fff;stroke:#222221;stroke-miterlimit:10;fill-rule:evenodd;}</style></defs><g transform="translate(0 -203.25)"><path class="a" d="M28.453,260.156h0A28.453,28.453,0,0,1,0,231.7H0A28.453,28.453,0,0,1,28.453,203.25h0A28.453,28.453,0,0,1,56.906,231.7h0A28.443,28.443,0,0,1,28.453,260.156Z"/><path class="b" d="M47.974,243.272h0c-.008-.016-.016-.016-.032-.032h-.008a4.263,4.263,0,0,0-1.071-.389c-.008,0-.016,0-.016-.008a9.2,9.2,0,0,1-4.388-3.19,10.038,10.038,0,0,1-1.5-2.618v-.016a1.237,1.237,0,0,1,.056-1.119.008.008,0,0,0,.008-.008,3.085,3.085,0,0,1,1.508-.96h.008a5.7,5.7,0,0,0,2.039-1.055c.008,0,.008-.008.016-.008a1.194,1.194,0,0,0,.294-.381.6.6,0,0,0,.048-.143.732.732,0,0,0-.04-.532v-.008a1.619,1.619,0,0,0-.714-.682h-.008a1.5,1.5,0,0,0-1.222-.111h-.008a7.675,7.675,0,0,1-1.079.317.029.029,0,0,0-.024.008,2.442,2.442,0,0,1-1.23-.032c-.008-.048-.008-.151-.024-.27h.008c-.032-.746.04-1.508.048-2.3v-.008a20.686,20.686,0,0,0-.1-3.7v-.016a8.274,8.274,0,0,0-3.467-5.134,8.757,8.757,0,0,0-4.237-1.508h0c-.516-.048-1.024-.063-1.523-.063a9.488,9.488,0,0,0-5.792,1.841,9.378,9.378,0,0,0-2.825,3.682v.008a10.387,10.387,0,0,0-.452,4.491h0a21.875,21.875,0,0,1,.071,2.952.36.36,0,0,1-.016.063,3.906,3.906,0,0,1-1.452-.04h-.008A10.033,10.033,0,0,1,19.735,232a.029.029,0,0,1-.024-.008,1.318,1.318,0,0,0-1.079.246c-.008,0-.016,0-.016.008s-.016.008-.016.016a1.11,1.11,0,0,0-.6.889.322.322,0,0,0,0,.087c.008,0,0,.008.008.008a1.041,1.041,0,0,0,.373.6c.151.135.294.214.381.286.008,0,.016.008.024.016a11.213,11.213,0,0,0,2.277.992h0a1.647,1.647,0,0,1,1.024.976,2.77,2.77,0,0,1-.4,1.746v.008a10.7,10.7,0,0,1-3.467,3.967,8.322,8.322,0,0,1-2.547,1.158.134.134,0,0,0-.04.016,1.472,1.472,0,0,0-.9.524c-.016.032-.032.063-.048.1a.77.77,0,0,0,.151.714,1.175,1.175,0,0,0,.389.3c.008,0,.016.008.024.008a8.911,8.911,0,0,0,2.349.817.008.008,0,0,1,.008.008,8.089,8.089,0,0,1,1.468.365c.016.032.063.167.151.4.143.421.2.9.357,1.42a.429.429,0,0,0,.317.286.809.809,0,0,0,.563-.048H20.5a9.226,9.226,0,0,1,3.713-.135h0a14.782,14.782,0,0,1,3.491,1.888v.008h0a5.734,5.734,0,0,0,2.785,1.024H30.5a19.322,19.322,0,0,0,2.357-.056h.016a4.319,4.319,0,0,0,1.857-.635c.008-.008.016-.016.024-.016a41.226,41.226,0,0,1,3.6-2.118h.008a5.515,5.515,0,0,1,1.444-.167h.016a19.551,19.551,0,0,1,3.047.151.227.227,0,0,0,.1,0,.6.6,0,0,0,.349-.19.459.459,0,0,0,.111-.214c.032-.1.056-.151.008-.063a.425.425,0,0,0,.04-.087,4.134,4.134,0,0,1,.587-1.5.886.886,0,0,1,.627-.19h.056a11.288,11.288,0,0,0,2.42-.682.048.048,0,0,1,.032-.008,2.147,2.147,0,0,0,.984-.659v-.008h0a.7.7,0,0,0-.214-.984Z" transform="translate(-3.025 -3.317)"/></g></svg>